<!DOCTYPE svg PUBLIC "-//W3C//DTD SVG 1.1//EN" "http://www.w3.org/Graphics/SVG/1.1/DTD/svg11.dtd">
<!-- Uploaded to: SVG Repo, www.svgrepo.com, Transformed by: SVG Repo Mixer Tools -->
<svg fill="#000000" width="800px" height="800px" viewBox="-102.4 -102.4 1228.80 1228.80" xmlns="http://www.w3.org/2000/svg" transform="matrix(-1, 0, 0, 1, 0, 0)rotate(270)" stroke="#000000" stroke-width="0.01024">
<g id="SVGRepo_bgCarrier" stroke-width="0">
<path transform="translate(-102.4, -102.4), scale(76.8)" fill="#7ed0ec" d="M9.166.33a2.25 2.25 0 00-2.332 0l-5.25 3.182A2.25 2.25 0 00.5 5.436v5.128a2.25 2.25 0 001.084 1.924l5.25 3.182a2.25 2.25 0 002.332 0l5.25-3.182a2.25 2.25 0 001.084-1.924V5.436a2.25 2.25 0 00-1.084-1.924L9.166.33z" strokewidth="0"/>
</g>
<g id="SVGRepo_tracerCarrier" stroke-linecap="round" stroke-linejoin="round" stroke="#CCCCCC" stroke-width="24.576">
<path d="M872.533 185.601c0-12.8-4.267-21.333-12.8-29.867l-128-128c-12.8-12.8-25.6-17.067-38.4-12.8h-473.6C189.866 10.667 160 36.267 151.466 70.401v874.666c0 38.4 29.867 68.267 68.267 68.267H800c38.4 0 68.267-29.867 68.267-68.267V194.134l4.267-8.533c0 4.267 0 4.267 0 0zm-42.667 0c4.267 4.267 0 12.8-4.267 12.8h-115.2c-12.8 0-21.333-8.533-21.333-21.333v-115.2c0-8.533 8.533-8.533 12.8-4.267l128 128zm4.267 759.466c0 17.067-12.8 29.867-29.867 29.867H219.733c-17.067 0-29.867-12.8-29.867-29.867v-870.4c4.267-12.8 12.8-21.333 29.867-21.333H646.4v123.734c0 34.133 25.6 64 64 64h123.733v704z"/>
</g>
<g id="SVGRepo_iconCarrier">
<path d="M872.533 185.601c0-12.8-4.267-21.333-12.8-29.867l-128-128c-12.8-12.8-25.6-17.067-38.4-12.8h-473.6C189.866 10.667 160 36.267 151.466 70.401v874.666c0 38.4 29.867 68.267 68.267 68.267H800c38.4 0 68.267-29.867 68.267-68.267V194.134l4.267-8.533c0 4.267 0 4.267 0 0zm-42.667 0c4.267 4.267 0 12.8-4.267 12.8h-115.2c-12.8 0-21.333-8.533-21.333-21.333v-115.2c0-8.533 8.533-8.533 12.8-4.267l128 128zm4.267 759.466c0 17.067-12.8 29.867-29.867 29.867H219.733c-17.067 0-29.867-12.8-29.867-29.867v-870.4c4.267-12.8 12.8-21.333 29.867-21.333H646.4v123.734c0 34.133 25.6 64 64 64h123.733v704z"/>
</g>
</svg>